<?xml version="1.0" encoding="UTF-8"?>
<svg id="Capa_2" data-name="Capa 2" xmlns="http://www.w3.org/2000/svg" viewBox="0 0 336.42 376.74">
  <defs>
    <style>
      .cls-1 {
        fill: none;
        stroke: #be1622;
        stroke-miterlimit: 10;
        stroke-width: 12px;
      }

      .cls-2 {
        fill: #be1622;
        stroke-width: 0px;
      }
    </style>
  </defs>
  <g id="Capa_1-2" data-name="Capa 1">
    <g>
      <circle class="cls-1" cx="168.21" cy="208.53" r="162.21"/>
      <path class="cls-2" d="m243.61,324.75c-34.31-29.84-64.45-64.36-92.18-100.24-16.65-21.46-34.12-46.35-48.77-69.23-9.07-14.26-17.69-28.81-25.83-43.61,25.79,36.33,54.8,71.32,84.89,104.16,30.19,32.59,62.25,63.51,96.14,92.16,11.04,9.86-2.62,26.11-14.25,16.76h0Z"/>
      <path class="cls-2" d="m321.92,0c-87.98,91.94-164.15,197.67-210.77,316.52-2.23,5.65-8.62,8.43-14.27,6.2-5.63-2.22-8.4-8.56-6.23-14.2C136.68,193.42,230.65,82.6,321.92,0h0Z"/>
    </g>
  </g>
</svg>